<svg viewBox="0 0 16 16" xmlns:osb="http://www.openswatchbook.org/uri/2009/osb" xmlns:dc="http://purl.org/dc/elements/1.1/" xmlns:cc="http://creativecommons.org/ns#" xmlns:rdf="http://www.w3.org/1999/02/22-rdf-syntax-ns#" xmlns="http://www.w3.org/2000/svg" id="svg6190" version="1.1" fill="#ffffff"><g id="SVGRepo_bgCarrier" stroke-width="0"></g><g id="SVGRepo_tracerCarrier" stroke-linecap="round" stroke-linejoin="round"></g><g id="SVGRepo_iconCarrier"> <metadata id="metadata6196"> <rdf:rdf> <cc:work> <dc:format>image/svg+xml</dc:format> <dc:type rdf:resource="http://purl.org/dc/dcmitype/StillImage"></dc:type> <dc:title></dc:title> <dc:date>2021</dc:date> <dc:creator> <cc:agent> <dc:title>Timothée Giet</dc:title> </cc:agent> </dc:creator> <cc:license rdf:resource="http://creativecommons.org/licenses/by-sa/4.0/"></cc:license> </cc:work> <cc:license rdf:about="http://creativecommons.org/licenses/by-sa/4.0/"> <cc:permits rdf:resource="http://creativecommons.org/ns#Reproduction"></cc:permits> <cc:permits rdf:resource="http://creativecommons.org/ns#Distribution"></cc:permits> <cc:requires rdf:resource="http://creativecommons.org/ns#Notice"></cc:requires> <cc:requires rdf:resource="http://creativecommons.org/ns#Attribution"></cc:requires> <cc:permits rdf:resource="http://creativecommons.org/ns#DerivativeWorks"></cc:permits> <cc:requires rdf:resource="http://creativecommons.org/ns#ShareAlike"></cc:requires> </cc:license> </rdf:rdf> </metadata> <defs id="defs6194"> <linearGradient gradientTransform="matrix(1.08154 0 0 1.08154 -.657 9.283)" osb:paint="solid" id="linearGradient1152"> <stop id="stop1150" offset="0" style="stop-color:#ffffff;stop-opacity:1"></stop> </linearGradient> </defs> <g id="layer1" transform="translate(6.025 -1038.1)"> <path id="path1142" d="M-2.025 1042.1a4 4 0 0 0 0 8c2 0 4-1 5-4-1-3-3-4-5-4zm0 2s2 0 3 2c-1 2-3 2-3 2a2 2 0 1 1 0-4z" style="opacity:1;vector-effect:none;fill:#ffffff;fill-opacity:1;stroke:none;stroke-width:4;stroke-linecap:square;stroke-linejoin:round;stroke-miterlimit:4;stroke-dasharray:none;stroke-dashoffset:3.20000005;stroke-opacity:.55063291"></path> <path id="path1142-3" d="M5.975 1042.1a4 4 0 0 1 0 8c-2 0-4-1-5-4 1-3 3-4 5-4zm0 2s-2 0-3 2c1 2 3 2 3 2a2 2 0 1 0 0-4z" style="opacity:1;vector-effect:none;fill:#ffffff;fill-opacity:1;stroke:none;stroke-width:4;stroke-linecap:square;stroke-linejoin:round;stroke-miterlimit:4;stroke-dasharray:none;stroke-dashoffset:3.20000005;stroke-opacity:.55063291"></path> </g> </g></svg>