<!-- icon666.com - MILLIONS vector ICONS FREE --><svg version="1.1" id="Layer_1" xmlns="http://www.w3.org/2000/svg" xmlns:xlink="http://www.w3.org/1999/xlink" x="0px" y="0px" viewBox="0 0 512 512" style="enable-background:new 0 0 512 512;" xml:space="preserve"><rect x="23.836" y="304.127" style="" width="464.323" height="24.016" fill="#CBBBA0"></rect><g><rect x="7.825" y="272.098" style="fill: rgb(188, 66, 26);" width="496.352" height="32.022" fill="#ED7149"></rect><rect x="55.857" y="103.984" style="fill: rgb(188, 66, 26);" width="400.286" height="48.033" fill="#ED7149"></rect><rect x="55.857" y="184.035" style="fill: rgb(188, 66, 26);" width="400.286" height="48.033" fill="#ED7149"></rect></g><g><path style="" d="M415.932,264.277v-24.378h48.034v-63.683h-48.034v-16.374h48.034V96.158h-48.034V79.967h-15.649 v16.193H111.717V79.967H96.067v16.193H48.034v63.683h48.034v16.373H48.034v63.683h48.034v24.378H0v47.672h512v-47.672H415.932 L415.932,264.277z M63.683,111.807h384.634v32.384H63.683V111.807z M111.717,159.841h288.567v16.373H111.717V159.841z M63.683,191.865h384.634v32.385H63.683V191.865z M111.717,239.899h288.567v24.378H111.717V239.899z M496.351,296.299H15.649 v-16.373h480.702V296.299z" fill="#1D1D1B"></path><polygon style="" points="487.983,320.317 24.017,320.317 24.017,416.384 15.831,416.384 15.831,432.033 47.853,432.033 47.853,416.384 39.667,416.384 39.667,335.966 96.067,335.966 96.067,416.384 87.881,416.384 87.881,432.033 119.904,432.033 119.904,416.384 111.717,416.384 111.717,335.966 400.283,335.966 400.283,416.384 392.096,416.384 392.096,432.033 424.118,432.033 424.118,416.384 415.932,416.384 415.932,335.966 472.333,335.966 472.333,416.384 464.148,416.384 464.148,432.033 496.169,432.033 496.169,416.384 487.983,416.384 " fill="#1D1D1B"></polygon><rect x="95.888" y="120.176" style="" width="16.011" height="15.649" fill="#1D1D1B"></rect><rect x="95.888" y="200.237" style="" width="16.011" height="15.649" fill="#1D1D1B"></rect><rect x="400.099" y="120.176" style="" width="16.011" height="15.649" fill="#1D1D1B"></rect><rect x="400.099" y="200.237" style="" width="16.011" height="15.649" fill="#1D1D1B"></rect></g></svg>